<svg xmlns="http://www.w3.org/2000/svg" xmlns:xlink="http://www.w3.org/1999/xlink" width="500" zoomAndPan="magnify" viewBox="0 0 375 374.999991" height="500" preserveAspectRatio="xMidYMid meet" version="1.0"><defs><clipPath id="bb7775ca1a"><path d="M 12.945312 165 L 361.695312 165 L 361.695312 210 L 12.945312 210 Z M 12.945312 165 " clip-rule="nonzero"/></clipPath><clipPath id="7f8b2450e0"><path d="M 12.945312 267 L 361.695312 267 L 361.695312 311.28125 L 12.945312 311.28125 Z M 12.945312 267 " clip-rule="nonzero"/></clipPath><clipPath id="87d8965885"><path d="M 12.945312 63.78125 L 361.695312 63.78125 L 361.695312 108 L 12.945312 108 Z M 12.945312 63.78125 " clip-rule="nonzero"/></clipPath></defs><g clip-path="url(#bb7775ca1a)"><path fill="#ffffff" d="M 340.226562 165.679688 L 34.761719 165.679688 C 22.710938 165.679688 12.945312 175.445312 12.945312 187.496094 C 12.945312 199.550781 22.710938 209.316406 34.761719 209.316406 L 340.226562 209.316406 C 352.277344 209.316406 362.046875 199.550781 362.046875 187.496094 C 362.046875 175.445312 352.277344 165.679688 340.226562 165.679688 Z M 340.226562 165.679688 " fill-opacity="1" fill-rule="nonzero"/></g><g clip-path="url(#7f8b2450e0)"><path fill="#ffffff" d="M 340.226562 267.5 L 34.761719 267.5 C 22.710938 267.5 12.945312 277.269531 12.945312 289.320312 C 12.945312 301.371094 22.710938 311.136719 34.761719 311.136719 L 340.226562 311.136719 C 352.277344 311.136719 362.046875 301.371094 362.046875 289.320312 C 362.046875 277.269531 352.277344 267.5 340.226562 267.5 Z M 340.226562 267.5 " fill-opacity="1" fill-rule="nonzero"/></g><g clip-path="url(#87d8965885)"><path fill="#ffffff" d="M 34.761719 107.496094 L 340.226562 107.496094 C 352.277344 107.496094 362.046875 97.726562 362.046875 85.675781 C 362.046875 73.625 352.277344 63.859375 340.226562 63.859375 L 34.761719 63.859375 C 22.710938 63.859375 12.945312 73.625 12.945312 85.675781 C 12.945312 97.726562 22.710938 107.496094 34.761719 107.496094 Z M 34.761719 107.496094 " fill-opacity="1" fill-rule="nonzero"/></g></svg>