<svg xmlns="http://www.w3.org/2000/svg" viewBox="0 0 263 76">
  <path fill="#d8d933" d="M117.173 23.567c-9.101 1.241-15.513 9.101-14.375 17.478.31 2.482 1.344 4.86 2.895 6.93v.102a11.567 11.567 0 01.931 8.688c-.414 1.24-.93 2.378-1.448 3.516-.62.93-1.034 1.965-1.448 2.999-.103.207-.103.414-.206.62-.31.62-.62 1.345-.724 2.069-.724 4.137 1.965 8.17 6.205 8.894 4.136.724 8.17-2.069 8.894-6.205 1.034-4.861-4.137-7.653-1.965-11.687 1.344-2.585 4.033-2.688 5.48-2.895 8.998-1.655 15.41-9.101 14.273-17.478-1.138-8.377-9.515-14.272-18.512-13.03"/>
  <path fill="#761e25" d="M140.132 41.045h2.585l4.654 11.376h.31V41.045h1.344v12.927h-2.482l-4.653-11.48h-.31v11.48h-1.448V41.045zm17.684 11.583l.103 1.034c-.93.31-1.964.517-2.999.517-2.482 0-3.516-1.448-3.516-4.654 0-3.102 1.138-4.964 3.827-4.964 1.861 0 3.102.724 3.102 2.586 0 2.275-1.448 2.792-4.55 2.792h-.931v.31c0 1.758.724 2.896 2.172 2.896.827-.207 1.758-.31 2.792-.517zm-4.137-3.93c2.276 0 3.103-.31 3.103-1.655 0-1.034-.62-1.344-1.655-1.344-1.655 0-2.378 1.137-2.378 3.102l.93-.103zm8.274-2.792v5.377c0 1.035.31 1.655 1.24 1.655.518 0 1.449-.103 1.449-.103l.103 1.137c-.517.104-1.138.207-1.655.207-1.861 0-2.378-1.034-2.378-2.792v-5.481h-1.241v-1.241h1.24v-2.793h1.345v2.793h2.586v1.24h-2.69zm4.24 8.066V40.528h1.448v5.481c.62-.827 1.654-1.448 2.689-1.551 2.068 0 2.895 1.448 2.895 3.723v5.791h-1.344v-5.377c0-1.965-.517-2.896-1.758-2.896s-2.379 1.655-2.379 1.655v6.618h-1.551zm15.41-1.344l.103 1.034c-.931.31-1.965.517-3 .517-2.482 0-3.516-1.448-3.516-4.654 0-3.102 1.138-4.964 3.827-4.964 1.861 0 3.102.724 3.102 2.586 0 2.275-1.448 2.792-4.55 2.792h-.93v.31c0 1.758.62 2.896 2.17 2.896.828-.207 1.759-.31 2.793-.517zm-4.138-3.93c2.276 0 3.103-.31 3.103-1.655 0-1.034-.62-1.344-1.655-1.344-1.654 0-2.378 1.137-2.378 3.102l.93-.103zm6.412-4.033h1.448v1.448c.828-.724 1.862-1.241 2.896-1.552v1.448c-1.034.31-1.965.724-2.896 1.345v6.722h-1.448v-9.411zm5.999-4.034h1.447v13.445h-1.447V40.63zm3.516 8.894c0-2.999.724-5.067 3.723-5.067 1.034 0 3.413.31 3.413.31v6.93c0 .826.103 2.274.103 2.274h-1.448s-.103-.827-.103-1.551c-.62 1.034-1.551 1.655-2.69 1.758-2.17 0-2.998-1.655-2.998-4.654zm1.448 0c0 2.069.31 3.413 1.861 3.413 1.448 0 2.379-1.965 2.379-1.965v-5.17s-1.241-.208-1.758-.208c-2.069.104-2.482 1.345-2.482 3.93zm8.066 4.55v-9.41h1.345v1.448c.62-.931 1.654-1.448 2.689-1.552 2.068 0 2.895 1.448 2.895 3.723v5.792h-1.344v-5.378c0-1.965-.517-2.896-1.758-2.896s-2.379 1.655-2.379 1.655v6.619h-1.448zm16.133-.103h-1.344v-1.344c-.62.93-1.655 1.448-2.792 1.551-2.172 0-2.896-1.758-2.896-4.757 0-3.206.93-4.964 3.62-4.964.724 0 1.344.103 2.068.207v-4.137h1.344v13.444zm-1.447-8.066c-.62-.104-1.241-.207-1.965-.207-1.862 0-2.379 1.344-2.379 3.723 0 1.965.31 3.516 1.862 3.516 1.344 0 2.378-1.758 2.378-1.758v-5.274h.104zm9.514 0c-1.034-.104-1.965-.207-2.999-.207-.827 0-1.655.414-1.655 1.448s.62 1.24 1.965 1.551c1.862.414 3.103.724 3.103 2.585 0 2.276-1.345 2.896-3.413 2.896-1.034 0-2.068-.207-3-.414l.104-1.137 2.793.31c1.447 0 2.068-.414 2.068-1.551 0-1.138-.827-1.241-2.068-1.448-1.759-.414-3-.827-3-2.689 0-2.068 1.552-2.689 3-2.689 1.034 0 2.068.104 3.102.31v1.035zm-86.974 12.927h7.239v1.241h-5.792v5.067h4.758v1.241h-4.758v5.275h-1.447V58.833zm15.409 8.17c0 2.896-.517 4.964-3.62 4.964-3.102 0-3.62-1.965-3.62-4.964 0-2.896.724-4.757 3.62-4.757s3.62 1.758 3.62 4.757zm-1.345 0c0-2.379-.517-3.516-2.275-3.516s-2.275 1.137-2.275 3.516.207 3.723 2.275 3.723c2.069 0 2.275-1.448 2.275-3.723zm10.446 0c0 2.896-.517 4.964-3.62 4.964s-3.62-1.965-3.62-4.964c0-2.896.724-4.757 3.62-4.757s3.62 1.758 3.62 4.757zm-1.345 0c0-2.379-.517-3.516-2.275-3.516s-2.275 1.137-2.275 3.516.207 3.723 2.275 3.723 2.275-1.448 2.275-3.723zm10.135 4.757h-1.344v-1.344c-.62.93-1.655 1.448-2.793 1.551-2.171 0-2.895-1.758-2.895-4.757 0-3.206.93-4.964 3.62-4.964.723 0 1.344.103 2.068.207v-4.137h1.448l-.104 13.444zm-1.344-8.066c-.62-.104-1.241-.207-1.965-.207-1.758 0-2.379 1.344-2.379 3.723 0 1.965.31 3.516 1.862 3.516 1.344 0 2.378-1.758 2.378-1.758v-5.274h.104zm9.514 3.826v4.24h-1.448V58.833h4.034c2.688 0 4.136 1.138 4.136 4.137 0 3.102-1.55 4.447-4.136 4.447l-2.586.103zm2.586-1.241c1.758 0 2.688-.827 2.688-3.206 0-2.172-.93-2.896-2.688-2.896h-2.586v6.102h2.586zm5.584 1.034c0-2.999.724-5.067 3.723-5.067 1.034 0 3.413.31 3.413.31v6.929c0 .827.103 2.275.103 2.275h-1.447s-.104-.827-.104-1.551c-.62 1.034-1.551 1.655-2.792 1.758-2.172 0-2.896-1.655-2.896-4.654zm1.448 0c0 2.069.31 3.413 1.862 3.413 1.55 0 2.378-1.965 2.378-1.965v-5.17s-1.24-.208-1.758-.208c-2.068.104-2.482 1.345-2.482 3.93zm8.067-4.86h1.447V63.9c.828-.724 1.862-1.24 2.896-1.55v1.447c-1.034.31-1.965.724-2.896 1.344v6.723h-1.447v-9.411zm7.653 1.137v5.378c0 1.034.31 1.655 1.24 1.655.518 0 1.448-.104 1.448-.104l.104 1.138c-.517.103-1.138.207-1.655.207-1.861 0-2.378-1.035-2.378-2.793v-5.48h-1.241v-1.242h1.24v-2.792h1.345v2.792h2.585v1.241h-2.688zm4.24 8.274v-9.411h1.344V63.9c.62-.93 1.655-1.447 2.689-1.55 2.068 0 2.896 1.447 2.896 3.722v5.792h-1.345v-5.378c0-1.965-.517-2.896-1.758-2.896-1.24 0-2.378 1.655-2.378 1.655v6.619h-1.448zm15.409-1.552l.103 1.035c-.93.31-1.965.517-2.999.517-2.482 0-3.516-1.448-3.516-4.654 0-3.103 1.138-4.964 3.827-4.964 1.861 0 3.102.724 3.102 2.585 0 2.275-1.448 2.792-4.55 2.792h-.931v.31c0 1.759.62 2.896 2.172 2.896.93-.103 1.861-.206 2.792-.517zm-4.033-3.826c2.275 0 3.102-.31 3.102-1.655 0-1.034-.62-1.344-1.758-1.344-1.655 0-2.378 1.137-2.378 3.102l1.034-.103zm6.412-4.033h1.447V63.9c.828-.724 1.862-1.24 2.896-1.55v1.447c-1.034.31-1.965.724-2.896 1.344v6.723h-1.447v-9.411zm11.479 1.24c-1.034-.103-1.965-.206-3-.206-.826 0-1.654.413-1.654 1.448 0 1.034.62 1.24 1.965 1.55 1.862.415 3.103.725 3.103 2.586 0 2.276-1.345 2.896-3.413 2.896-1.034 0-2.068-.207-3-.414l.104-1.137 2.792.31c1.448 0 2.069-.414 2.069-1.551 0-1.241-.828-1.241-2.069-1.448-1.758-.414-2.999-.827-2.999-2.689 0-2.068 1.552-2.689 3-2.689 1.034 0 2.068.104 3.102.31v1.035zm2.275 8.067V58.316h1.448v5.481c.62-.827 1.655-1.448 2.689-1.551 2.068 0 2.896 1.448 2.896 3.723v5.791h-1.345v-5.378c0-1.964-.517-2.895-1.758-2.895-1.24 0-2.379 1.654-2.379 1.654v6.62h-1.55zm9.308-12.927h1.448v1.655h-1.448v-1.655zm0 3.62h1.448v9.307h-1.448v-9.307zm3.93 0h1.344v1.344a3.458 3.458 0 012.586-1.551c2.378 0 3.102 1.861 3.102 4.757 0 3.206-.93 4.964-3.723 4.964-.724 0-1.344-.103-1.965-.207V76h-1.448l.104-13.547zm1.344 2.792v5.274c.62.104 1.241.207 1.862.207 1.861 0 2.378-1.344 2.378-3.723 0-1.965-.31-3.516-1.861-3.516-1.241 0-2.379 1.758-2.379 1.758z"/>
  <path fill="#bc973c" d="M82.631 41.045c4.344-8.067 13.548-5.585 17.478-8.377 3.93-2.792 4.343-3.516 5.274-6.412.31-1.034-.103-3.206-.724-4.86-1.24-3.103-1.861-6.412-1.655-9.825.724-7.446 8.067-12.307 15.823-11.48 7.757.828 13.238 8.067 12.41 15.513-.516 4.447-3.205 8.377-7.135 10.652-2.793 1.655-7.033 1.758-10.342 1.965-3.93.207-4.757 3.516-3.62 6.516 1.138 2.999 2.69 4.55 4.137 7.963 3.103 7.55.103 16.96-7.032 21.82-7.757 5.379-19.03 2.173-23.476-3.929-4.344-5.998-4.654-13.03-1.138-19.546z"/>
  <path fill="#6a1e25" d="M6.309 52.318v19.235H0V41.045h6.102l12.824 19.029V41.045h6.205v30.508h-6.102L6.31 52.318zm32.163-6.205v7.549h10.755v5.068H38.472v12.72h-6.309V40.942h16.96v5.067l-10.651.104zm21.82 14.892V71.45h-6.308V41.045h9.722c3.62 0 6.412.827 8.377 2.585 1.964 1.655 2.895 4.137 2.895 7.24 0 1.551-.31 3.102-.93 4.55-.621 1.345-1.448 2.482-2.586 3.413-2.068 1.551-4.654 2.275-7.343 2.172h-3.826zm0-5.068h2.69c1.034 0 2.068-.103 2.999-.517 1.758-.724 2.896-2.378 2.689-4.24a4.506 4.506 0 00-2.379-4.24c-.93-.517-2.068-.724-3.102-.62h-2.896v9.617z"/>
  <path fill="#d67c21" d="M149.44 30.807c3.102-.207 5.48-2.896 5.273-6.102-.206-3.103-2.895-5.481-6.101-5.274-3.103.207-5.481 2.895-5.274 6.101.206 3.103 2.999 5.481 6.101 5.275"/>
  <path fill="#c02481" d="M58.535 18.397c-.414 4.033 2.482 7.549 6.412 7.963h1.034c2.585.103 6.205-1.138 10.135 2.068 5.481 4.344 5.584 6.722 5.067 10.962-.517 2.793-.413 5.585.31 8.274 1.862 7.86 9.722 12.824 17.582 10.962 7.86-1.861 12.823-9.721 10.962-17.581a7.21 7.21 0 00-.62-1.965c-1.138-3.516-5.068-8.687-3.62-11.376 1.344-2.378 3.102-.724 6.515-1.655a6.561 6.561 0 004.654-5.48c.414-3.517-2.172-6.826-5.688-7.24-3-.62-5.895 1.138-6.93 3.93-1.24 2.896.621 5.895-.516 8.894-.828 2.172-3.93 4.033-7.033 4.964-1.344.414-2.688.724-4.136.827-8.274.31-11.687-1.448-16.547-4.86-3-2.069-2.379-4.137-3.103-8.48-.62-3.827-2.895-6.31-6.515-6.723-3.93-.31-7.55 2.586-7.963 6.516z"/>
  <path fill="#d67c21" d="M168.778 20.465c3.93 0 7.136-3.206 7.136-7.136s-3.206-7.136-7.136-7.136-7.136 3.206-7.136 7.136c.104 3.93 3.206 7.136 7.136 7.136"/>
</svg>
