<?xml version="1.0" encoding="UTF-8"?>
<svg width="63px" height="20px" viewBox="0 0 63 20" version="1.1" xmlns="http://www.w3.org/2000/svg" xmlns:xlink="http://www.w3.org/1999/xlink">
    <title>7990167F-834D-424F-9410-8AE45C0BA6FA</title>
    <defs>
        <linearGradient x1="-0.00326492537%" y1="50.0479452%" x2="100.052705%" y2="50.0479452%" id="linearGradient-1">
            <stop stop-color="#95C11F" offset="0%"></stop>
            <stop stop-color="#95C11F" offset="5%"></stop>
            <stop stop-color="#00A9D6" offset="50%"></stop>
            <stop stop-color="#00A9D6" offset="68%"></stop>
            <stop stop-color="#283583" offset="90%"></stop>
            <stop stop-color="#283583" offset="100%"></stop>
        </linearGradient>
    </defs>
    <g id="NWP-2.0" stroke="none" stroke-width="1" fill="none" fill-rule="evenodd">
        <g id="Home---1920" transform="translate(-188.000000, -4056.000000)" fill="url(#linearGradient-1)" fill-rule="nonzero">
            <g id="Footer" transform="translate(0.000000, 3958.000000)">
                <g id="NWP_Kleur_RGB" transform="translate(188.000000, 98.000000)">
                    <path d="M51.8950367,4.74153082 L54.3385249,4.74153082 C56.2293194,4.74153082 57.3637961,5.6142052 57.3637961,7.21410824 L57.3637961,7.27228653 C57.3637961,8.75583298 56.2293194,9.7157748 54.3676141,9.7157748 L51.8950367,9.7157748 L51.8950367,4.74153082 Z M31.6199018,0.290891461 L31.6199018,0.290891461 C30.7181383,0.290891461 29.9327313,0.901763529 29.7000182,1.74534877 L29.7000182,1.74534877 L26.5293013,11.2865887 L23.6785649,1.86170535 C23.4458518,0.989030968 22.6604448,0.349069753 21.7295921,0.349069753 C21.7295921,0.349069753 21.7295921,0.349069753 21.700503,0.349069753 L21.700503,0.349069753 L14.8936428,0.349069753 C13.7591661,0.349069753 12.8574026,1.25083328 12.8574026,2.38530998 C12.8574026,2.38530998 12.8574026,2.38530998 12.8574026,2.38530998 L12.8574026,10.3266469 L5.70147264,1.16356584 L5.70147264,1.16356584 C5.32331374,0.669050361 4.74153082,0.349069753 4.07248046,0.349069753 L2.23986425,0.349069753 C1.10538755,0.349069753 0.203624023,1.25083328 0.203624023,2.38530998 L0.203624023,17.1916854 L0.203624023,17.1916854 C0.203624023,18.3261621 1.10538755,19.2279256 2.23986425,19.2279256 L3.3452518,19.2279256 C4.4797285,19.2279256 5.38149203,18.3261621 5.38149203,17.1916854 C5.38149203,17.1916854 5.38149203,17.1625962 5.38149203,17.1625962 L5.38149203,8.87218956 L12.8283134,18.4134295 C13.2064723,18.907945 13.7882553,19.1988364 14.4282165,19.2279256 L14.4282165,19.2279256 L15.9990304,19.2279256 C17.1335071,19.2279256 18.0352706,18.3261621 18.0352706,17.1916854 L18.0352706,17.1916854 L18.0352706,1.33810072 L23.5622084,17.9770923 L23.5622084,17.9770923 C23.8240107,18.7915884 24.5803285,19.3733713 25.482092,19.3733713 L27.1110842,19.3733713 C28.0128477,19.3733713 28.7691655,18.7915884 29.0309678,17.9770923 L29.0309678,17.9770923 L32.3180413,8.49403066 L35.6051148,17.918914 C35.6051148,17.9480032 35.634204,17.9770923 35.634204,18.0061814 L35.6632931,18.0643597 L35.6632931,18.0643597 C35.9541846,18.8206775 36.6814132,19.3733713 37.5540876,19.3733713 L39.1830798,19.3733713 L39.1830798,19.3733713 C39.1830798,19.3733713 39.1830798,19.3733713 39.1830798,19.3733713 C40.0848433,19.3733713 40.8411611,18.7915884 41.1029635,17.9770923 L41.1029635,17.9770923 L46.6299012,1.33810072 L46.6299012,17.1335071 L46.6299012,17.1625962 L46.6299012,17.1625962 C46.6299012,17.1625962 46.6299012,17.1625962 46.6299012,17.1916854 C46.6299012,18.3261621 47.5316647,19.2279256 48.6661414,19.2279256 L48.7243197,19.2279256 L49.8297073,19.2279256 C50.964184,19.2279256 51.8659475,18.3261621 51.8659475,17.1916854 C51.8659475,17.1916854 51.8659475,17.1625962 51.8659475,17.1625962 L51.8659475,13.8173444 L54.4548815,13.8173444 C59.138234,13.8173444 62.5707533,11.4611236 62.5707533,7.01048421 L62.5707533,6.98139507 C62.5707533,2.79255803 59.4873038,0.349069753 54.7166838,0.349069753 L43.0519362,0.349069753 C42.1501727,0.349069753 41.3647658,0.959941822 41.1029635,1.77443791 L38.2522271,11.2574995 L35.0815102,1.68717047 L35.0815102,1.68717047 C34.8197079,0.872674383 34.0633901,0.261802315 33.1325374,0.261802315 L31.6199018,0.261802315 L31.6199018,0.290891461 Z" id="Shape"></path>
                </g>
            </g>
        </g>
    </g>
</svg>